# xmcd
#
# Track frame offsets: 
#        150
#        16983
#        33273
#        55512
#        79461
#        102273
#        119060
#        140060
#        160942
#        175873
#        195783
#
# Disc length: 2844 seconds
#
# Revision: 4
# Processed by: cddbd v1.5.2PL0 Copyright (c) Steve Scherf et al.
# Submitted via: ExactAudioCopy v1.3
#
DISCID=8b0b1a0b
DTITLE=David Phelps - Life Is A Church
DYEAR=2005
DGENRE=Christian
TTITLE0=With His Love
TTITLE1=Something's Gotta Change
TTITLE2=Life Is A Church
TTITLE3=That's What Love Is
TTITLE4=Behold The Lamb
TTITLE5=Long Time Coming
TTITLE6=Gentle Savior
TTITLE7=Visions Of God
TTITLE8=Power
TTITLE9=The Name Lives On
TTITLE10=Legacy Of Love
EXTD=YEAR: 2005
EXTT0=
EXTT1=
EXTT2=
EXTT3=
EXTT4=
EXTT5=
EXTT6=
EXTT7=
EXTT8=
EXTT9=
EXTT10=
PLAYORDER=
